<?xml version="1.0" encoding="utf-8"?>
<!-- Generator: Adobe Illustrator 25.0.0, SVG Export Plug-In . SVG Version: 6.00 Build 0)  -->
<svg version="1.1" xmlns="http://www.w3.org/2000/svg" xmlns:xlink="http://www.w3.org/1999/xlink" x="0px" y="0px"
	 viewBox="0 0 3710 3710" style="enable-background:new 0 0 3710 3710;" xml:space="preserve">
<style type="text/css">
	.st0{fill:#F4F7FA;}
	.st1{fill:url(#SVGID_1_);}
	.st2{opacity:0.5;clip-path:url(#SVGID_3_);}
	.st3{fill:#FFFFFF;}
	.st4{opacity:0.5;clip-path:url(#SVGID_6_);}
	.st5{fill:url(#SVGID_7_);}
	.st6{fill:url(#SVGID_8_);}
	.st7{fill:url(#SVGID_9_);}
	.st8{fill:url(#SVGID_10_);}
	.st9{fill:url(#SVGID_11_);}
	.st10{fill:url(#SVGID_12_);}
	.st11{fill:#BFC8D6;}
	.st12{fill:#D8DEE8;}
	.st13{opacity:0.48;fill:#FFFFFF;}
	.st14{fill:url(#SVGID_13_);}
	.st15{opacity:0.3;fill:#BFC8D6;}
	.st16{fill:url(#SVGID_14_);}
	.st17{opacity:0.74;fill:#FFFFFF;}
	.st18{fill:url(#SVGID_15_);}
	.st19{fill:url(#SVGID_16_);}
	.st20{fill:url(#SVGID_17_);}
	.st21{fill:url(#SVGID_18_);}
	.st22{fill:url(#SVGID_19_);}
	.st23{fill:url(#SVGID_20_);}
	.st24{fill:url(#SVGID_21_);}
	.st25{fill:url(#SVGID_22_);}
	.st26{fill:url(#SVGID_23_);}
	.st27{fill:url(#SVGID_24_);}
	.st28{opacity:0.3;}
	.st29{fill:url(#SVGID_25_);}
	.st30{fill:url(#SVGID_26_);}
	.st31{fill:url(#SVGID_27_);}
	.st32{fill:url(#SVGID_28_);}
	.st33{fill:url(#SVGID_29_);}
	.st34{fill:url(#SVGID_30_);}
	.st35{fill:url(#SVGID_31_);}
	.st36{opacity:0.3;fill:url(#SVGID_32_);}
	.st37{fill:url(#SVGID_33_);}
	.st38{fill:url(#SVGID_34_);}
	.st39{fill:url(#SVGID_35_);}
	.st40{fill:url(#SVGID_36_);}
	.st41{fill:url(#SVGID_37_);}
	.st42{fill:url(#SVGID_38_);}
</style>
<g id="Background">
</g>
<g id="Illustration">
	<g id="Order_closed">
		<path class="st0" d="M3196.76,1610.07c-67.92-444.59-346.41-990.81-896.59-1047.97c0,0-417.72-50.81-829.51,26.2
			c-244.39,45.7-458.69,181.75-594.29,377.29c-135.6,195.54-180.9,433.97-125.92,661.29c35.7,147.64,59.83,300.45,53.21,452.16
			c-11.52,264.04-4.89,510.51,251.35,667.97c228.8,140.6,516.74,264.61,791.45,286.32c186.69,14.76,396.05-9.13,575.98-57.73
			C3339.4,2727.91,3264.68,2054.66,3196.76,1610.07z"/>
		<g>
			
				<linearGradient id="SVGID_1_" gradientUnits="userSpaceOnUse" x1="5943.8076" y1="491.0267" x2="6748.4458" y2="491.0267" gradientTransform="matrix(0.7582 0.6521 -0.6521 0.7582 -2274.8401 -2506.7156)">
				<stop  offset="0" style="stop-color:#FF9085"/>
				<stop  offset="1" style="stop-color:#FB6FBB"/>
			</linearGradient>
			<path class="st1" d="M1943.15,2559.74c-77.9,21.57-138.56-68.2-89.47-132.42c15.24-19.94,29.71-41.43,43.03-64.6
				c98.95-172.03,47.81-284.97,136.92-596.39c56.35-196.91,97.65-333.76,216.64-382.04c93.25-37.84,223.03-16.76,286.18,56.78
				c52.51,61.14,65.1,165.7,58.95,236.44c-5.01,57.66-22.73,95.9,1.66,133.22c24.92,38.14,64.41,30.33,89.2,60.21
				c50.27,60.59-23.57,199.49-35.51,221.94c-132.75,249.71-424.24,366.2-552.01,415.48
				C2055.69,2524.96,2003.63,2543,1943.15,2559.74z"/>
			<g>
				<defs>
					<path id="SVGID_2_" d="M1918.09,2566.47c-71.13,18.52-124.95-65.02-78.22-121.75c20.33-24.69,39.55-51.94,56.84-82
						c98.95-172.03,47.81-284.97,136.92-596.39c56.35-196.91,97.65-333.76,216.64-382.04c93.25-37.84,223.03-16.76,286.18,56.78
						c52.51,61.14,65.1,165.7,58.95,236.44c-5.01,57.66-22.73,95.9,1.66,133.22c24.92,38.14,64.41,30.33,89.2,60.21
						c50.27,60.59-23.57,199.49-35.51,221.94c-132.75,249.71-424.24,366.2-552.01,415.48
						C2049.86,2527.21,1989.35,2547.91,1918.09,2566.47z"/>
				</defs>
				<clipPath id="SVGID_3_">
					<use xlink:href="#SVGID_2_"  style="overflow:visible;"/>
				</clipPath>
				<g class="st2">
					<path class="st3" d="M1540.26,2646.7l-0.75-6.73c124.88-13.98,236.01-40.35,330.31-78.39
						c138.98-56.06,237.1-136.12,291.65-237.95c42.73-79.78,58.03-169.92,79.2-294.7c16.9-99.61,19.89-171.74,22.53-235.38
						c3.45-83.24,6.18-148.98,38.71-237.06c33-89.37,86.72-172.83,159.67-248.07l4.86,4.71c-72.29,74.56-125.51,157.22-158.18,245.7
						c-32.15,87.08-34.86,152.36-38.29,235c-2.65,63.84-5.65,136.2-22.63,236.23c-20.47,120.68-36.65,216.01-79.9,296.76
						c-55.32,103.27-154.6,184.36-295.09,241.04C1777.48,2606.13,1665.75,2632.66,1540.26,2646.7z"/>
					<path class="st3" d="M2255.75,1960.18l-3.01-2.35c-0.58-0.45-58.19-45.97-105.96-129.52
						c-44.08-77.11-88.66-203.37-50.69-366.99l6.59,1.53c-37.47,161.49,6.49,286.05,49.98,362.1
						c40.94,71.61,89.03,114.75,101.29,125.11c98.69-162.57,221.8-248.81,307.98-292.59c94.11-47.81,165.88-56.73,166.6-56.82
						l0.8,6.72c-0.7,0.08-71.52,8.93-164.62,56.28c-85.89,43.68-208.86,130.01-306.98,293.25L2255.75,1960.18z"/>
					<path class="st3" d="M2201.93,2227.86l-0.84-2.31c-0.4-1.1-40.52-111.05-102.31-213.38
						c-61.4-101.68-246.64-179.19-248.5-179.96l2.59-6.26c1.88,0.78,189.16,79.13,251.71,182.71
						c57.15,94.65,95.86,195.74,102.02,212.25c217.75-10.39,554.53-427.23,557.92-431.45l5.28,4.23
						c-0.85,1.07-86.72,107.74-198.6,213.93c-150.58,142.94-273.99,217.01-366.81,220.15L2201.93,2227.86z"/>
					<path class="st3" d="M2039.72,2559.18c-75.45,0-123.67-6.29-124.36-6.39l-6.69-0.9l4.72-4.82
						c74.59-76.32,91.25-172.32,49.51-285.35c-31.24-84.62-85.26-147.37-85.8-148l5.11-4.44c0.55,0.63,55.37,64.33,87.04,150.09
						c41.22,111.65,25.2,210.9-46.3,287.49c24.5,2.65,113.95,10.6,230.91,0.77c126.53-10.65,312.05-44.91,477.29-147.66
						l321.08-199.67l3.58,5.75l-321.08,199.67c-166.43,103.5-353.15,137.98-480.47,148.67
						C2111.91,2557.95,2073.14,2559.18,2039.72,2559.18z"/>
				</g>
			</g>
			<g>
				<g>
					<defs>
						<path id="SVGID_4_" d="M1784.97,2567.67c108.17,63.36,255.01,128.65,422.2,145.15c42.67,4.21,306.24,30.22,336.46-79.23
							c10.65-38.55-16.65-61.35-3.32-113.15c15.8-61.37,64.24-68.64,125.27-121.28c36.42-31.41,142.99-123.34,110.79-226.84
							c-19.25-61.85-87.18-125.04-154.82-145.5c-99.22-30.02-178.37,37.76-310.31,154.76c-116.96,103.72-124.13,141.6-209.66,214.81
							C2038.1,2450.72,1938.5,2518.49,1784.97,2567.67z"/>
					</defs>
					<linearGradient id="SVGID_5_" gradientUnits="userSpaceOnUse" x1="2452.3013" y1="1949.8739" x2="2213.7383" y2="2590.228">
						<stop  offset="0" style="stop-color:#AA80F9"/>
						<stop  offset="0.9964" style="stop-color:#6165D7"/>
					</linearGradient>
					<use xlink:href="#SVGID_4_"  style="overflow:visible;fill:url(#SVGID_5_);"/>
					<clipPath id="SVGID_6_">
						<use xlink:href="#SVGID_4_"  style="overflow:visible;"/>
					</clipPath>
					<g class="st4">
						<path class="st3" d="M1840.57,2569.12c-67.63,0-133.91-9.51-198.62-28.56c-125.45-36.95-240.44-106.85-341.78-207.78l4.78-4.8
							c100.53,100.12,214.56,169.46,338.92,206.08c165.64,48.78,342.01,34.41,524.23-42.71
							c189.84-80.35,338.45-208.65,429.69-302.14c63.1-64.65,107.78-150.78,132.81-255.98l6.58,1.57
							c-25.31,106.41-70.58,193.6-134.55,259.14c-91.68,93.94-241.02,222.87-431.9,303.65
							C2058.13,2545.24,1947.68,2569.12,1840.57,2569.12z"/>
						<path class="st3" d="M2397.94,2366.75l-0.48-3c-0.35-2.21-33.48-222.98,106.75-364.47l4.81,4.77
							c-128.92,130.07-108.71,328.81-105.29,355.63c315.65-17.18,411.79-189.2,433.79-241.65c0.62-1.47,1.02-2.38,1.21-2.69
							l5.83,3.44l-2.92-1.72l2.95,1.65c-0.15,0.3-0.42,0.95-0.83,1.93c-22.45,53.55-120.74,229.53-442.79,245.96L2397.94,2366.75z"
							/>
						<path class="st3" d="M2485.05,2621.09c-0.38,0-0.74,0-1.12,0c-70.97-0.22-182.96-22.13-313.44-125.31l-1.42-1.12l0.15-1.8
							c0.14-1.69,14.95-170.92,133.15-344.39l119.07-174.74l5.59,3.81l-119.07,174.74c-110.64,162.37-129.91,320.83-131.82,339.34
							c71.24,56.05,182.03,122.33,307.82,122.71c0.36,0,0.72,0,1.07,0c74.83,0,119.88-23.71,120.32-23.95l3.2,5.96
							C2606.66,2597.34,2561.53,2621.09,2485.05,2621.09z"/>
					</g>
				</g>
			</g>
		</g>
		<g>
			<linearGradient id="SVGID_7_" gradientUnits="userSpaceOnUse" x1="2885.1404" y1="1181.5176" x2="2526.7883" y2="1080.1115">
				<stop  offset="0" style="stop-color:#311944"/>
				<stop  offset="1" style="stop-color:#A03976"/>
			</linearGradient>
			<path class="st5" d="M2608.15,1155.7c11.48,5.83,25.89,0.48,32.2-11.95c6.31-12.43,2.12-27.22-9.36-33.05
				c-0.59-0.3-1.2-0.56-1.81-0.8c2.13-6.88,3.74-13.81,4.82-20.74c0.66,0,1.32-0.01,1.99-0.07c13.09-1.17,23.49-13.2,23.21-26.87
				c-0.27-13.68-11.11-23.82-24.2-22.65c-0.68,0.06-1.36,0.17-2.02,0.29c-1.37-6.78-3.24-13.4-5.61-19.8
				c0.6-0.35,1.2-0.72,1.79-1.13c11.2-7.85,14.78-23.34,8-34.6c-6.78-11.26-21.36-14.02-32.57-6.18c-0.57,0.4-1.11,0.84-1.65,1.28
				c-4.42-4.89-9.28-9.42-14.53-13.56c0.37-0.61,0.73-1.22,1.06-1.86c6.31-12.43,14.55-26,2.99-31.65
				c-26.76-13.06-38.24-1.88-44.55,10.55c-0.33,0.64-0.61,1.3-0.88,1.95c-6.44-1.8-12.96-3.04-19.52-3.73
				c0.04-0.69,0.07-1.38,0.06-2.08c-0.27-13.67,3.78-21.08-9.36-21.33c-28.66-0.56-38.33,11.88-38.06,25.56
				c0.01,0.71,0.07,1.41,0.15,2.11c-6.57,1.87-13.02,4.27-19.3,7.16c-0.3-0.61-0.61-1.22-0.96-1.81
				c-6.78-11.26-21.36-14.02-32.57-6.18c-11.2,7.85-14.78,23.34-8,34.6c0.35,0.58,0.73,1.12,1.11,1.65
				c-4.96,4.96-9.61,10.35-13.9,16.13c-0.56-0.35-1.12-0.69-1.71-0.99c-11.48-5.83-25.89-0.48-32.2,11.95
				c-6.31,12.43-2.12,27.22,9.36,33.05c0.59,0.3,1.2,0.56,1.81,0.8c-2.13,6.88-3.74,13.81-4.82,20.74c-0.66,0-1.32,0.01-1.99,0.07
				c-13.09,1.17-23.49,13.2-23.21,26.87s11.11,23.81,24.2,22.65c0.68-0.06,1.36-0.17,2.02-0.29c1.37,6.78,3.24,13.4,5.61,19.8
				c-0.6,0.35-1.2,0.72-1.79,1.13c-11.2,7.85-14.78,23.34-8,34.6c6.78,11.26,29.24,16.49,40.45,8.64c0.57-0.4-6.76-3.3-6.23-3.74
				c4.42,4.89,9.28,9.42,14.53,13.56c-0.37,0.61-0.73,1.22-1.06,1.86c-6.31,12.43-2.12,27.22,9.36,33.05s25.89,0.48,32.2-11.95
				c0.33-0.64,0.61-1.3,0.88-1.95c6.44,1.8,12.96,3.04,19.52,3.73c-0.04,0.69-0.07,1.38-0.06,2.08
				c0.27,13.67,11.11,23.81,24.2,22.65s23.49-13.2,23.21-26.87c-0.01-0.71-0.07-1.41-0.14-2.11c6.57-1.87,13.02-4.27,19.3-7.16
				c0.3,0.61,0.61,1.22,0.96,1.8c6.78,11.26,21.36,14.02,32.57,6.18c11.2-7.85,14.78-23.34,8-34.6c-0.35-0.58-0.73-1.12-1.11-1.65
				c4.96-4.96,9.61-10.35,13.9-16.13C2606.99,1155.05,2607.56,1155.39,2608.15,1155.7z M2465.09,1157.51
				c-41.67-21.16-56.88-74.88-33.97-120c22.91-45.12,75.26-64.54,116.92-43.39c41.67,21.16,56.88,74.88,33.97,120
				C2559.1,1159.24,2506.76,1178.67,2465.09,1157.51z"/>
			<linearGradient id="SVGID_8_" gradientUnits="userSpaceOnUse" x1="2884.2009" y1="1184.8364" x2="2525.8479" y2="1083.4301">
				<stop  offset="0" style="stop-color:#311944"/>
				<stop  offset="1" style="stop-color:#A03976"/>
			</linearGradient>
			<path class="st6" d="M2636,1089.09c13.09-1.17,23.49-13.2,23.21-26.87c-0.27-13.67-11.11-23.82-24.2-22.65
				c-0.68,0.06-1.36,0.17-2.02,0.29c-1.37-6.78-3.24-13.4-5.61-19.8c0.6-0.35,1.2-0.72,1.79-1.13c11.2-7.85,25.06-26.81,17.16-37.32
				c-15-19.94-30.52-11.31-41.73-3.46c-0.57,0.4-1.11,0.84-1.65,1.28c-4.43-4.89-9.28-9.42-14.53-13.56
				c0.37-0.61,0.73-1.22,1.06-1.86c3.43-6.76,3.74-14.22,1.47-20.56c-10.82,19.04-21.49,38.17-31.98,57.39
				c33.24,24.36,43.82,72.36,23.05,113.29c-17.61,34.68-52.61,54.15-86.78,51.71c-1.52,3.95-3.02,7.93-4.65,11.84
				c-4.43,10.63-9.46,21.03-14.5,31.43c3.17,0.6,6.35,1.07,9.54,1.4c-0.04,0.69-0.07,1.38-0.06,2.08
				c0.27,13.67,8.58,25.29,32.31,24.03c13.13-0.7,15.38-14.59,15.11-28.26c-0.01-0.71-0.07-1.41-0.14-2.11
				c6.57-1.87,13.02-4.27,19.3-7.16c0.3,0.61,0.61,1.22,0.96,1.8c6.78,11.26,30.32,16.04,41.52,8.2c11.2-7.85,5.83-25.36-0.95-36.62
				c-0.35-0.58-0.73-1.12-1.11-1.65c4.96-4.96,9.61-10.35,13.9-16.13c0.56,0.35,1.12,0.69,1.71,0.99
				c11.48,5.83,25.89,0.48,32.2-11.95c6.31-12.43,2.12-27.22-9.36-33.05c-0.59-0.3-1.2-0.56-1.81-0.8
				c2.13-6.88,3.74-13.81,4.82-20.74C2634.67,1089.16,2635.33,1089.15,2636,1089.09z"/>
			<linearGradient id="SVGID_9_" gradientUnits="userSpaceOnUse" x1="2517.3967" y1="955.0585" x2="2523.0005" y2="1407.5779">
				<stop  offset="0" style="stop-color:#FF9085"/>
				<stop  offset="1" style="stop-color:#FB6FBB"/>
			</linearGradient>
			<path class="st7" d="M2620.5,1157.1c11.48,5.83,25.89,0.48,32.2-11.95s2.12-27.22-9.36-33.05c-0.59-0.3-1.2-0.56-1.81-0.8
				c2.13-6.88,3.74-13.81,4.82-20.74c0.66,0,1.32-0.01,1.99-0.07c13.09-1.17,23.49-13.2,23.21-26.87
				c-0.27-13.68-11.11-23.82-24.2-22.65c-0.68,0.06-1.36,0.17-2.03,0.29c-1.37-6.78-3.24-13.4-5.61-19.8
				c0.6-0.35,1.2-0.72,1.79-1.13c11.2-7.85,14.78-23.34,8-34.6c-6.78-11.26-21.36-14.02-32.57-6.18c-0.57,0.4-1.11,0.84-1.65,1.28
				c-4.42-4.89-9.28-9.42-14.53-13.56c0.37-0.61,0.73-1.22,1.06-1.86c6.31-12.43,2.12-27.22-9.36-33.05
				c-11.48-5.83-25.89-0.48-32.2,11.95c-0.33,0.64-0.61,1.3-0.88,1.95c-6.44-1.8-12.96-3.04-19.52-3.73
				c0.04-0.69,0.07-1.38,0.06-2.08c-0.27-13.67-11.11-23.81-24.2-22.65c-13.09,1.17-23.49,13.2-23.21,26.87
				c0.01,0.71,0.07,1.41,0.14,2.11c-6.57,1.87-13.02,4.27-19.3,7.16c-0.3-0.61-0.61-1.22-0.96-1.81
				c-6.78-11.26-21.37-14.02-32.57-6.18c-11.2,7.85-14.78,23.34-8,34.6c0.35,0.58,0.73,1.12,1.11,1.65
				c-4.96,4.96-9.61,10.35-13.9,16.13c-0.55-0.35-1.12-0.69-1.71-0.99c-11.48-5.83-25.89-0.48-32.2,11.95s-2.12,27.22,9.36,33.05
				c0.59,0.3,1.2,0.56,1.81,0.8c-2.13,6.88-3.74,13.81-4.82,20.74c-0.66,0-1.32,0.01-1.99,0.07c-13.09,1.17-23.49,13.2-23.21,26.87
				c0.27,13.68,11.11,23.81,24.2,22.65c0.68-0.06,1.36-0.17,2.02-0.29c1.37,6.78,3.24,13.4,5.61,19.8c-0.6,0.35-1.2,0.72-1.79,1.13
				c-11.2,7.85-14.78,23.34-8,34.6c6.78,11.26,21.37,14.02,32.57,6.18c0.57-0.4,1.11-0.84,1.65-1.28
				c4.42,4.89,9.28,9.42,14.53,13.56c-0.37,0.61-0.73,1.22-1.06,1.86c-6.31,12.43-2.12,27.22,9.36,33.05
				c11.48,5.83,25.89,0.48,32.2-11.95c0.33-0.64,0.61-1.3,0.88-1.95c6.44,1.8,12.96,3.04,19.52,3.73c-0.04,0.69-0.07,1.38-0.06,2.08
				c0.27,13.67,11.11,23.81,24.2,22.65c13.09-1.17,23.49-13.2,23.21-26.87c-0.01-0.71-0.07-1.41-0.14-2.11
				c6.57-1.87,13.02-4.27,19.3-7.16c0.3,0.61,0.61,1.22,0.96,1.8c6.78,11.26,21.36,14.03,32.57,6.18c11.2-7.85,14.78-23.34,8-34.6
				c-0.35-0.58-0.73-1.12-1.12-1.65c4.96-4.96,9.61-10.35,13.9-16.13C2619.34,1156.46,2619.9,1156.8,2620.5,1157.1z
				 M2477.43,1158.91c-41.67-21.16-56.88-74.88-33.97-120c22.91-45.12,75.26-64.54,116.92-43.39c41.67,21.16,56.88,74.88,33.97,120
				C2571.45,1160.65,2519.1,1180.07,2477.43,1158.91z"/>
			<g>
				<linearGradient id="SVGID_10_" gradientUnits="userSpaceOnUse" x1="2843.7385" y1="971.7992" x2="2141.7676" y2="773.1561">
					<stop  offset="0" style="stop-color:#311944"/>
					<stop  offset="1" style="stop-color:#A03976"/>
				</linearGradient>
				<path class="st8" d="M2301.15,921.22c22.48,11.41,50.72,0.93,63.08-23.41c12.36-24.34,4.15-53.33-18.33-64.74
					c-1.16-0.59-2.35-1.09-3.55-1.56c4.18-13.47,7.33-27.04,9.44-40.62c1.29,0,2.58-0.03,3.9-0.14c25.65-2.29,46-25.85,45.47-52.64
					c-0.54-26.79-21.77-46.65-47.41-44.37c-1.34,0.12-2.66,0.33-3.97,0.56c-2.68-13.28-6.35-26.24-10.98-38.79
					c1.18-0.69,2.35-1.4,3.5-2.21c21.94-15.37,28.96-45.72,15.67-67.77c-13.29-22.06-41.85-27.47-63.79-12.1
					c-1.12,0.79-2.18,1.64-3.23,2.5c-8.67-9.58-18.17-18.46-28.46-26.56c0.72-1.19,1.43-2.39,2.07-3.65
					c12.36-24.34,28.51-50.93,5.85-61.99c-52.41-25.59-74.9-3.68-87.26,20.66c-0.64,1.26-1.19,2.54-1.72,3.82
					c-12.61-3.52-25.39-5.96-38.24-7.3c0.08-1.35,0.14-2.71,0.12-4.08c-0.54-26.79,7.41-41.28-18.33-41.78
					c-56.14-1.09-75.08,23.28-74.55,50.06c0.03,1.4,0.14,2.77,0.28,4.13c-12.87,3.67-25.5,8.36-37.8,14.03
					c-0.58-1.19-1.19-2.38-1.89-3.54c-13.29-22.06-41.85-27.47-63.8-12.1c-21.94,15.37-28.96,45.72-15.67,67.77
					c0.68,1.13,1.43,2.19,2.18,3.23c-9.72,9.72-18.82,20.27-27.23,31.59c-1.09-0.68-2.19-1.35-3.36-1.94
					c-22.48-11.41-50.72-0.93-63.08,23.41c-12.36,24.34-4.15,53.33,18.33,64.74c1.16,0.59,2.35,1.09,3.55,1.56
					c-4.18,13.47-7.33,27.04-9.44,40.62c-1.29,0-2.58,0.03-3.89,0.14c-25.65,2.29-46.01,25.86-45.47,52.64
					c0.54,26.79,21.77,46.65,47.41,44.36c1.34-0.12,2.66-0.33,3.97-0.56c2.68,13.28,6.35,26.24,10.98,38.79
					c-1.18,0.69-2.35,1.4-3.5,2.21c-21.94,15.37-28.96,45.72-15.67,67.77c13.29,22.06,57.29,32.3,79.23,16.93
					c1.12-0.79-13.25-6.47-12.21-7.33c8.67,9.58,18.17,18.46,28.46,26.56c-0.72,1.19-1.43,2.39-2.07,3.65
					c-12.36,24.34-4.15,53.33,18.33,64.74c22.48,11.41,50.72,0.93,63.08-23.41c0.64-1.26,1.19-2.54,1.72-3.82
					c12.61,3.52,25.39,5.96,38.24,7.3c-0.08,1.35-0.14,2.71-0.12,4.08c0.54,26.79,21.76,46.65,47.41,44.36s46.01-25.86,45.47-52.64
					c-0.03-1.4-0.15-2.77-0.28-4.13c12.87-3.67,25.5-8.36,37.8-14.03c0.58,1.19,1.19,2.38,1.89,3.53
					c13.29,22.06,41.85,27.47,63.8,12.1c21.94-15.37,28.96-45.72,15.67-67.77c-0.68-1.13-1.43-2.19-2.18-3.23
					c9.72-9.72,18.82-20.27,27.23-31.59C2298.88,919.96,2299.99,920.63,2301.15,921.22z M2020.9,924.77
					c-81.62-41.44-111.41-146.68-66.54-235.06c44.87-88.38,147.42-126.43,229.04-84.99c81.62,41.44,111.41,146.68,66.54,235.06
					C2205.07,928.16,2102.53,966.22,2020.9,924.77z"/>
				<linearGradient id="SVGID_11_" gradientUnits="userSpaceOnUse" x1="2841.8977" y1="978.3002" x2="2139.9258" y2="779.6567">
					<stop  offset="0" style="stop-color:#311944"/>
					<stop  offset="1" style="stop-color:#A03976"/>
				</linearGradient>
				<path class="st9" d="M2355.69,790.74c25.65-2.29,46-25.86,45.47-52.64c-0.54-26.79-21.77-46.65-47.41-44.36
					c-1.34,0.12-2.66,0.33-3.97,0.56c-2.68-13.28-6.35-26.24-10.98-38.79c1.18-0.69,2.35-1.4,3.5-2.21
					c21.94-15.37,49.09-52.52,33.61-73.1c-29.38-39.05-59.79-22.15-81.74-6.77c-1.12,0.79-2.18,1.64-3.23,2.5
					c-8.67-9.58-18.17-18.46-28.46-26.56c0.72-1.19,1.43-2.39,2.07-3.65c6.73-13.25,7.32-27.85,2.88-40.27
					c-21.2,37.3-42.1,74.77-62.64,112.43c65.12,47.72,85.85,141.75,45.15,221.91c-34.49,67.93-103.05,106.08-170,101.3
					c-2.99,7.74-5.92,15.53-9.12,23.2c-8.68,20.81-18.54,41.2-28.41,61.56c6.21,1.17,12.44,2.09,18.7,2.75
					c-0.08,1.35-0.14,2.71-0.12,4.08c0.54,26.79,16.8,49.55,63.28,47.08c25.71-1.36,30.13-28.57,29.6-55.36
					c-0.03-1.4-0.14-2.77-0.28-4.13c12.87-3.67,25.5-8.36,37.8-14.03c0.58,1.2,1.19,2.38,1.89,3.53
					c13.29,22.06,59.39,31.43,81.34,16.05s11.42-49.67-1.87-71.73c-0.68-1.13-1.43-2.19-2.18-3.23
					c9.72-9.72,18.82-20.27,27.23-31.59c1.09,0.68,2.19,1.35,3.35,1.94c22.48,11.42,50.72,0.93,63.08-23.41
					c12.36-24.34,4.15-53.33-18.33-64.74c-1.16-0.59-2.35-1.09-3.55-1.56c4.18-13.47,7.33-27.04,9.44-40.62
					C2353.09,790.88,2354.38,790.85,2355.69,790.74z"/>
				<linearGradient id="SVGID_12_" gradientUnits="userSpaceOnUse" x1="2123.3704" y1="528.1912" x2="2134.3477" y2="1414.6256">
					<stop  offset="0" style="stop-color:#FF9085"/>
					<stop  offset="1" style="stop-color:#FB6FBB"/>
				</linearGradient>
				<path class="st10" d="M2325.33,923.97c22.48,11.41,50.72,0.93,63.08-23.41c12.36-24.34,4.15-53.33-18.33-64.74
					c-1.16-0.59-2.35-1.09-3.55-1.56c4.18-13.47,7.33-27.04,9.44-40.62c1.29,0,2.58-0.03,3.9-0.14c25.65-2.29,46-25.85,45.47-52.64
					c-0.54-26.79-21.76-46.65-47.41-44.37c-1.34,0.12-2.66,0.33-3.97,0.56c-2.68-13.28-6.35-26.24-10.98-38.79
					c1.18-0.69,2.35-1.4,3.5-2.21c21.94-15.37,28.96-45.72,15.67-67.77c-13.29-22.06-41.85-27.47-63.79-12.1
					c-1.12,0.79-2.18,1.64-3.23,2.5c-8.67-9.58-18.17-18.46-28.46-26.56c0.72-1.19,1.43-2.39,2.07-3.65
					c12.36-24.34,4.15-53.33-18.33-64.74c-22.48-11.41-50.72-0.93-63.08,23.41c-0.64,1.26-1.19,2.54-1.72,3.82
					c-12.61-3.52-25.39-5.96-38.24-7.3c0.08-1.35,0.14-2.71,0.12-4.08c-0.54-26.79-21.77-46.65-47.41-44.36
					c-25.65,2.29-46.01,25.86-45.47,52.64c0.03,1.4,0.15,2.77,0.28,4.13c-12.87,3.67-25.5,8.36-37.8,14.03
					c-0.58-1.19-1.19-2.38-1.88-3.54c-13.29-22.06-41.85-27.47-63.8-12.1c-21.94,15.37-28.96,45.72-15.67,67.77
					c0.68,1.13,1.43,2.19,2.18,3.23c-9.72,9.72-18.82,20.27-27.23,31.59c-1.09-0.68-2.19-1.35-3.36-1.94
					c-22.48-11.41-50.72-0.93-63.08,23.41c-12.36,24.34-4.15,53.33,18.33,64.74c1.16,0.59,2.35,1.09,3.55,1.56
					c-4.18,13.47-7.33,27.04-9.44,40.62c-1.29,0-2.58,0.03-3.9,0.14c-25.65,2.29-46.01,25.86-45.47,52.64
					c0.54,26.79,21.77,46.65,47.41,44.36c1.34-0.12,2.66-0.33,3.97-0.56c2.68,13.28,6.35,26.24,10.98,38.79
					c-1.18,0.69-2.35,1.4-3.5,2.21c-21.94,15.37-28.96,45.72-15.67,67.77c13.29,22.06,41.85,27.47,63.79,12.1
					c1.12-0.79,2.18-1.64,3.23-2.5c8.67,9.58,18.17,18.46,28.46,26.56c-0.72,1.19-1.43,2.39-2.07,3.65
					c-12.36,24.34-4.15,53.33,18.33,64.74c22.48,11.41,50.72,0.93,63.08-23.41c0.64-1.26,1.19-2.54,1.72-3.82
					c12.61,3.52,25.39,5.96,38.24,7.3c-0.08,1.35-0.14,2.71-0.12,4.08c0.54,26.79,21.76,46.65,47.41,44.36
					c25.65-2.29,46.01-25.86,45.47-52.64c-0.03-1.4-0.15-2.77-0.28-4.13c12.87-3.67,25.5-8.36,37.8-14.03
					c0.58,1.19,1.19,2.38,1.89,3.53c13.29,22.06,41.85,27.47,63.79,12.1c21.94-15.37,28.96-45.72,15.67-67.77
					c-0.68-1.13-1.43-2.19-2.18-3.23c9.72-9.72,18.82-20.27,27.23-31.59C2323.06,922.71,2324.16,923.38,2325.33,923.97z
					 M2045.08,927.52c-81.62-41.44-111.41-146.68-66.54-235.06c44.87-88.38,147.42-126.43,229.04-84.99
					c81.62,41.44,111.41,146.68,66.54,235.06C2229.25,930.91,2126.71,968.96,2045.08,927.52z"/>
			</g>
		</g>
		<g>
			<g>
				<path class="st11" d="M3213.09,2867.99l-2663.76-23.03v68.13c0,18.49,11.62,34.21,27.35,37.02l753.23,134.16
					c8.94,1.59,18,2.01,27.02,1.26l1827.21-152.96c16.31-1.37,28.95-17.14,28.95-36.14V2867.99z"/>
				<g>
					<path class="st11" d="M2278.15,1564.29v1139.7c0,14.38-5.24,27.79-13.61,37.75c-8.13,9.74-19.33,16.16-31.68,17.09l-1224,90.28
						l-456.36,33.77h-0.07l-3.09,0.07l-9.92,0.6c-30.3,2.23-55.31-21.57-55.31-53.03V1569.74c0-31.47,25.39-57.79,55.69-57.79
						h1693.02C2257.79,1511.96,2278.15,1535.84,2278.15,1564.29z"/>
					<path class="st3" d="M2305.23,1564.29v1139.7c0,21.96-12.19,41.58-29.18,50.21c-0.25,0.13-0.56,0.25-0.81,0.38
						c-1.62,0.79-3.29,1.51-4.99,2.09c-0.38,0.14-0.77,0.27-1.15,0.41c-0.31,0.07-0.63,0.17-0.9,0.24
						c-1.24,0.38-2.48,0.65-3.75,0.89c-1.51,0.31-3.05,0.51-4.63,0.62l-8.58,0.56l-1218.22,89.64h-0.07l-466.19,34.37
						c-4.49,0.34-8.89,0.3-13.07-0.48c-0.41-0.07-0.79-0.04-1.2-0.04h-0.07c-1.03,0-2.4-0.62-3.43-0.93
						c-21.75-5.94-37.81-26.29-37.81-51.44V1569.74c0-31.47,25.32-57.79,55.62-57.79h1693.02
						C2284.8,1511.96,2305.23,1535.84,2305.23,1564.29z"/>
					<path class="st12" d="M2207.08,2678.46L630.19,2786.72c-24.65,1.69-44.69-17.76-44.69-43.45V1639.48
						c0-25.69,20.04-46.6,44.69-46.71l1576.89-6.8c20.59-0.09,37.24,18.81,37.24,42.21v1005.36
						C2244.32,2656.93,2227.67,2677.05,2207.08,2678.46z"/>
					<path class="st3" d="M1473.1,1547.26c0,11.71-8.71,21.24-19.47,21.27c-10.77,0.03-19.52-9.46-19.52-21.2
						s8.74-21.27,19.52-21.27C1464.38,1526.05,1473.1,1535.54,1473.1,1547.26z"/>
					<path class="st13" d="M566.78,2883.44l1684.47-124l8.57-0.63c11.45-0.84,21.86-6.5,29.82-15.09
						c-121.22-6.63-196.51-49.65-245.07-94.1c-97.53-89.26-80.62-177.29-185.79-235.98c-131.19-73.2-234.34,19.55-333.89-71.96
						c-60.35-55.48-30.72-96.86-104.98-179.77c-82.25-91.83-135.8-60.96-218.46-143.62c-104.52-104.51-52.24-185.82-142.28-260.85
						c-109.22-91.03-227.01-6.78-330.98-94.07c-44.84-37.65-69.45-92.39-82.3-150.6h-79.1c-30.3,0-54.93,25.51-54.93,56.98v1260.76
						C511.86,2861.97,536.48,2885.67,566.78,2883.44z"/>
				</g>
				<linearGradient id="SVGID_13_" gradientUnits="userSpaceOnUse" x1="1171.557" y1="2887.6338" x2="3835.3201" y2="2887.6338">
					<stop  offset="0.494" style="stop-color:#EBEFF2"/>
					<stop  offset="1" style="stop-color:#FFFFFF"/>
				</linearGradient>
				<path class="st14" d="M2339.59,2751.9L549.33,2883.08l780.59,139.03c8.94,1.59,18,2.01,27.02,1.26l1856.15-155.38l-845.03-115.2
					C2358.62,2751.5,2349.09,2751.2,2339.59,2751.9z"/>
				<polygon class="st12" points="810.56,2884.21 2301,2773.37 2762.28,2835.75 1284.68,2954.23 				"/>
			</g>
		</g>
		<path class="st15" d="M2169.83,1511.96v1138.03c0,10.5-2.1,20.76-5.16,30.47c-4.29,13.76-11.65,26.42-20.92,37.3
			c-17.84,20.93-43.69,35.17-72.52,37.37l-1225.85,92.51l-72.29,5.46c-17.43,1.34-33.95-1.06-48.74-6.48
			c-29.71-10.81-51.83-33.77-60.64-63.07c-2.68-8.75-3.58-18.05-3.58-27.79V1511.96H2169.83z"/>
		<g>
			<linearGradient id="SVGID_14_" gradientUnits="userSpaceOnUse" x1="685.9622" y1="1804.2212" x2="2196.96" y2="1804.2212">
				<stop  offset="3.597120e-03" style="stop-color:#E38DDD"/>
				<stop  offset="1" style="stop-color:#9571F6"/>
			</linearGradient>
			<path class="st16" d="M2098.71,819.08L800.2,779.07c-62.92-1.94-114.24,43.92-114.24,102.45v1850.21
				c0,58.52,51.31,102.09,114.24,97.35l1298.51-97.97c54.4-4.1,98.25-51.16,98.25-105.13V919.82
				C2196.96,865.86,2153.1,820.76,2098.71,819.08z"/>
			<path class="st17" d="M722.59,2740.18V871.44c0-33.68,29.51-60.12,65.78-59.07l1320.62,38.39c31.37,0.91,56.72,26.92,56.72,58.09
				v1729.51c0,31.17-25.35,58.31-56.72,60.62l-1320.62,97.34C752.09,2798.99,722.59,2773.86,722.59,2740.18z"/>
			<linearGradient id="SVGID_15_" gradientUnits="userSpaceOnUse" x1="1449.4897" y1="860.4185" x2="1320.4358" y2="2026.8733">
				<stop  offset="0" style="stop-color:#40447E"/>
				<stop  offset="0.9964" style="stop-color:#3C3B6B"/>
			</linearGradient>
			<path class="st18" d="M2098.71,819.08L800.2,779.07c-62.92-1.94-114.24,43.92-114.24,102.45v76.01l1511,32.39v-70.09
				C2196.96,865.86,2153.11,820.76,2098.71,819.08z"/>
			<path class="st3" d="M888.81,876.5c0,18.95-16.5,33.92-36.9,33.43c-20.44-0.49-37.04-16.32-37.04-35.34s16.6-33.99,37.04-33.43
				C872.3,841.73,888.81,857.55,888.81,876.5z"/>
			<path class="st3" d="M1017.29,879.83c0,18.83-16.28,33.7-36.41,33.21c-20.17-0.49-36.54-16.2-36.54-35.1
				c0-18.9,16.38-33.77,36.54-33.21C1001,845.29,1017.29,861,1017.29,879.83z"/>
			<path class="st3" d="M1144.06,883.11c0,18.7-16.07,33.48-35.92,33c-19.9-0.48-36.06-16.09-36.06-34.86
				c0-18.77,16.16-33.54,36.06-32.99C1127.99,848.8,1144.06,864.41,1144.06,883.11z"/>
			<g>
				<g>
					<g>
						<g>
							<path class="st3" d="M1423.83,1343.95l-534.46-0.85c-8.71-0.01-15.78-6.5-15.78-14.49v-34c0-7.99,7.07-14.43,15.78-14.38
								l534.46,3c8.12,0.05,14.69,6.32,14.69,14.03v32.78C1438.52,1337.73,1431.94,1343.97,1423.83,1343.95z"/>
							<path class="st3" d="M910.09,1355.92l45.95,168.51c2.9,10.65,13.32,18.03,25.25,17.89l355.79-4
								c11.37-0.13,21.27-7.54,24.03-17.97l43.33-164.06L910.09,1355.92z M1041.98,1514.54c0,6.69-5.86,12.17-13.09,12.24
								l-12.49,0.13c-7.25,0.07-13.13-5.3-13.13-12v-130.61c0-6.7,5.88-12.14,13.13-12.14l12.49,0c7.23,0,13.09,5.42,13.09,12.1
								V1514.54z M1111.42,1513.89c0,6.66-5.81,12.11-12.97,12.18l-12.38,0.13c-7.18,0.07-13.01-5.28-13.01-11.95v-130.02
								c0-6.67,5.83-12.08,13.01-12.08l12.38,0c7.17,0,12.97,5.39,12.97,12.05V1513.89z M1180.23,1513.23
								c0,6.63-5.75,12.06-12.86,12.13l-12.27,0.13c-7.12,0.07-12.9-5.25-12.9-11.89v-129.44c0-6.64,5.78-12.03,12.9-12.03l12.27,0
								c7.1,0,12.86,5.37,12.86,11.99V1513.23z M1248.44,1512.59c0,6.6-5.7,12-12.74,12.07l-12.16,0.12
								c-7.06,0.07-12.78-5.23-12.78-11.84v-128.86c0-6.61,5.73-11.98,12.78-11.98l12.16,0c7.04,0,12.74,5.34,12.74,11.94V1512.59z
								 M1316.04,1511.94c0,6.57-5.65,11.95-12.63,12.02l-12.05,0.12c-6.99,0.07-12.67-5.21-12.67-11.79v-128.29
								c0-6.58,5.68-11.92,12.67-11.92l12.05,0c6.98,0,12.63,5.32,12.63,11.89V1511.94z"/>
							<g>
								<g>
									<path class="st12" d="M970.13,1263.54c-8.12,6.46-20.45,5.61-27.54-1.93c-7.1-7.54-6.25-18.9,1.89-25.36
										c8.14-6.45,20.46-5.56,27.54,1.97C979.09,1245.75,978.24,1257.08,970.13,1263.54z"/>
									<path class="st3" d="M1141.65,1103.42c-2.68-2.91-8.21-2.59-12.37,0.7l-169.23,134.39c-4.25,3.37-5.47,8.48-2.73,11.39
										c2.74,2.92,8.4,2.54,12.65-0.83l169.02-134.42C1143.13,1111.36,1144.32,1106.33,1141.65,1103.42z"/>
								</g>
								<g>
									<path class="st12" d="M1347.72,1266.07c7.72,6.41,19.42,5.72,26.13-1.52c6.71-7.23,5.9-18.28-1.79-24.69
										c-7.7-6.41-19.4-5.76-26.13,1.48C1339.18,1248.58,1339.99,1259.66,1347.72,1266.07z"/>
									<path class="st3" d="M1180.8,1104.09c2.66-2.81,8.16-2.3,12.28,1.13l164.22,136.6c4.03,3.35,5.19,8.34,2.59,11.14
										c-2.6,2.8-7.98,2.36-12.02-1l-164.43-136.57C1179.32,1111.96,1178.13,1106.9,1180.8,1104.09z"/>
								</g>
							</g>
						</g>
						<g>
							<polygon class="st3" points="2046.15,1183.28 1495.02,1176.24 1495.02,1107.64 2046.15,1117.2 							"/>
							<polygon class="st3" points="2046.15,1298.97 1495.02,1296.34 1495.02,1227.74 2046.15,1232.89 							"/>
							<polygon class="st3" points="2046.15,1414.66 1495.02,1416.45 1495.02,1347.85 2046.15,1348.58 							"/>
							<polygon class="st3" points="2046.15,1530.36 1495.02,1536.55 1495.02,1467.95 2046.15,1464.27 							"/>
						</g>
					</g>
				</g>
			</g>
			<g>
				<g>
					<linearGradient id="SVGID_16_" gradientUnits="userSpaceOnUse" x1="967.4087" y1="2147.1782" x2="1971.1897" y2="2147.1782">
						<stop  offset="0" style="stop-color:#FF9085"/>
						<stop  offset="1" style="stop-color:#FB6FBB"/>
					</linearGradient>
					<path class="st19" d="M1971.19,2115.18c0,277.53-223.63,517.46-500.34,535.95c-277.66,18.56-503.44-192.72-503.44-471.96
						s225.78-519.31,503.44-536.15C1747.56,1626.24,1971.19,1837.65,1971.19,2115.18z"/>
					<path class="st3" d="M1501.58,1665.78c120.86,0,233.23,45.95,316.41,129.39c83.51,83.78,129.51,197.43,129.51,320.01
						c0,128.25-49.73,252.17-140.03,348.95c-90.33,96.81-210.44,154.82-338.19,163.36c-10.74,0.72-21.6,1.08-32.27,1.08
						c-120.78,0-233.09-45.87-316.25-129.17c-83.6-83.74-129.64-197.47-129.64-320.24c0-266.5,215.86-496.41,481.18-512.5
						C1482.01,1666.08,1491.86,1665.78,1501.58,1665.78L1501.58,1665.78L1501.58,1665.78z M1501.55,1642.09
						c-10.15,0-20.4,0.31-30.71,0.93c-277.66,16.84-503.44,256.91-503.44,536.15c0,267.81,207.65,473.1,469.58,473.1
						c11.18,0,22.48-0.38,33.85-1.14c276.71-18.5,500.34-258.43,500.34-535.95C1971.19,1847.99,1763.93,1642.07,1501.55,1642.09
						L1501.55,1642.09z"/>
				</g>
			</g>
			<g>
				<path class="st3" d="M1685.19,2413.48c-14.71,1.71-29.5-2.92-40.82-14.34l-393.44-396.6c-25.81-26.02-25.81-70.1,0-98.08
					c25.61-27.76,66.69-28.84,91.78-2.8l382.77,397.35c22.02,22.86,22.02,63.43,0,90.94
					C1714.41,2403.79,1699.83,2411.78,1685.19,2413.48z"/>
				<path class="st3" d="M1297.15,2458.63c-16.65,1.94-33.39-2.87-46.21-14.94c-25.81-24.27-25.81-68.35,0-98.08l393.44-453.16
					c22.62-26.05,58.93-27.01,81.11-2.48c22.02,24.35,22.02,64.92,0,90.94l-382.77,452.38
					C1330.19,2448.1,1313.71,2456.7,1297.15,2458.63z"/>
			</g>
		</g>
		<g>
			
				<linearGradient id="SVGID_17_" gradientUnits="userSpaceOnUse" x1="-590.7947" y1="1740.7622" x2="-265.9546" y2="3298.6179" gradientTransform="matrix(-1 0 0 1 1961.1639 0)">
				<stop  offset="0" style="stop-color:#FFC444"/>
				<stop  offset="0.9964" style="stop-color:#F36F56"/>
			</linearGradient>
			<path class="st20" d="M2398.87,1789.77c-32.69-34.9,57.8-166.01,106.24-223.47c42.31-50.19,85.8-101.78,139.21-95.25
				c46.89,5.73,92.51,55.18,95.25,102.57C2746.92,1701.12,2445.34,1839.38,2398.87,1789.77z"/>
			
				<linearGradient id="SVGID_18_" gradientUnits="userSpaceOnUse" x1="3022.8076" y1="3105.2249" x2="3135.3293" y2="3105.2249" gradientTransform="matrix(0.9996 0.0289 -0.0289 0.9996 -244.5115 -31.2392)">
				<stop  offset="0" style="stop-color:#444B8C"/>
				<stop  offset="0.9964" style="stop-color:#26264F"/>
			</linearGradient>
			<path class="st21" d="M2791.34,3137.08c6.15,5,7.28,17.49,8.02,25.66c0.33,3.65,0.5,5.47,0.09,6.76
				c-2.97,9.4-21.2,10.38-49.77,13.3c-45.16,4.61-58.6,8.17-62.13,1.45c-3.31-6.3,4.7-16.61,5.61-17.75
				c4.85-6.11,10.81-8.34,22.32-12.13c21.31-7.01,35.7-10.85,40.06-12.02C2782.76,3135.1,2787.3,3133.8,2791.34,3137.08z"/>
			<linearGradient id="SVGID_19_" gradientUnits="userSpaceOnUse" x1="2759.968" y1="3124.5952" x2="2800.3081" y2="3124.5952">
				<stop  offset="0" style="stop-color:#FFC444"/>
				<stop  offset="0.9964" style="stop-color:#F36F56"/>
			</linearGradient>
			<path class="st22" d="M2764.49,3095.83l-4.52,51.46c1.28,2.48,16.58,9.94,28.73,3.55l11.61-50.58L2764.49,3095.83z"/>
			
				<linearGradient id="SVGID_20_" gradientUnits="userSpaceOnUse" x1="3373.9307" y1="2638.0605" x2="3493.478" y2="2638.0605" gradientTransform="matrix(0.9642 0.2651 -0.2651 0.9642 -231.6863 -308.9189)">
				<stop  offset="0" style="stop-color:#444B8C"/>
				<stop  offset="0.9964" style="stop-color:#26264F"/>
			</linearGradient>
			<path class="st23" d="M2433.2,3130.47c7.37,8.14,9.05,23.14,2.64,30.53c-6.3,7.26-15.78,1.82-42.66,2.62
				c-28.8,0.86-36.31,7.66-55.88,2.26c-7.91-2.19-21.87-7.49-21.6-13.13c0.19-3.97,7.29-6.02,31.04-13.97
				c33.7-11.29,33.55-11.9,40.71-13.09C2405.41,3122.71,2423.46,3119.72,2433.2,3130.47z"/>
			<linearGradient id="SVGID_21_" gradientUnits="userSpaceOnUse" x1="2400.3071" y1="3111.2769" x2="2450.1306" y2="3111.2769">
				<stop  offset="0" style="stop-color:#FFC444"/>
				<stop  offset="0.9964" style="stop-color:#F36F56"/>
			</linearGradient>
			<path class="st24" d="M2414.75,3083.51l-14.44,48.04c1.09,2.58,15.77,11.17,28.37,5.73l21.45-46.63L2414.75,3083.51z"/>
			
				<linearGradient id="SVGID_22_" gradientUnits="userSpaceOnUse" x1="-400.2105" y1="2934.5444" x2="-719.0652" y2="2215.77" gradientTransform="matrix(-1 0 0 1 1961.1639 0)">
				<stop  offset="0" style="stop-color:#40447E"/>
				<stop  offset="0.9964" style="stop-color:#3C3B6B"/>
			</linearGradient>
			<path class="st25" d="M2543.07,2031.33c-2.07,161.46-13.09,342.99-39.52,540.22c-26.13,194.93-62.74,371.06-102.68,525.94
				c18.43,4.96,36.85,9.92,55.28,14.87c46.75-43.59,105.72-112.21,134.18-209.18c17.66-60.19,11.78-91.11,22.98-165.14
				c17.84-117.87,53.97-179.62,91.31-274.67c33.56-85.41,73.22-210.76,94.49-378.31
				C2713.76,2067.15,2628.42,2049.24,2543.07,2031.33z"/>
			
				<linearGradient id="SVGID_23_" gradientUnits="userSpaceOnUse" x1="-985.3562" y1="2760.4705" x2="-1304.2053" y2="2041.7086" gradientTransform="matrix(-0.9925 -0.1225 -0.1225 0.9925 1878.1588 108.1241)">
				<stop  offset="0" style="stop-color:#40447E"/>
				<stop  offset="0.9964" style="stop-color:#3C3B6B"/>
			</linearGradient>
			<path class="st26" d="M2709.41,2015.92c11.28,205.34,20.55,414.51,27.58,627.38c5.28,159.74,9.15,317.45,11.72,473.09
				c18.82,2.32,37.64,4.65,56.47,6.97c18.19-33.86,42.34-85.63,58.89-151.99c20.1-80.59,15.45-128.45,24.26-211.97
				c9.89-93.68,24.25-114.09,49.7-232.27c51.65-239.83,77.48-359.75,19.86-434.35C2939.19,2068.57,2880.56,2007.82,2709.41,2015.92z
				"/>
			
				<linearGradient id="SVGID_24_" gradientUnits="userSpaceOnUse" x1="-885.7394" y1="1802.2628" x2="-560.9005" y2="3360.1128" gradientTransform="matrix(-1 0 0 1 1961.1639 0)">
				<stop  offset="0" style="stop-color:#FFC444"/>
				<stop  offset="0.9964" style="stop-color:#F36F56"/>
			</linearGradient>
			<path class="st27" d="M2983.73,1499.84c-44.08-12.4-108.68-26.89-187.8-31.36c-112.84-6.38-169.27-9.57-209.25,17.3
				c-92.34,62.07-20.85,205.31-58.65,560.41c-5.4,50.71-6.61,101.78-10.52,152.63c-6.47,84.19-7.95,88.76-2.09,97.29
				c36.73,53.5,173.78-27.19,374.66,4.7c112.39,17.85,163.37,58.96,194.16,29.31c35.91-34.58,5.11-127.6-21.41-207.68
				c-30.44-91.92-49.24-93.1-66.51-162.32c-18.06-72.35-7.14-109.61-4.32-223.7C2993.34,1681.82,2993.05,1600.57,2983.73,1499.84z"
				/>
			<g class="st28">
				
					<linearGradient id="SVGID_25_" gradientUnits="userSpaceOnUse" x1="-974.7816" y1="2786.8069" x2="-832.1874" y2="2109.4873" gradientTransform="matrix(-1 0 0 1 1961.1639 0)">
					<stop  offset="0" style="stop-color:#FFC444"/>
					<stop  offset="0.9964" style="stop-color:#F36F56"/>
				</linearGradient>
				<path class="st29" d="M2710.57,2166.49c52.5-4.11,86.56,25.57,131.88,2.44c62.15-31.72,82.11-130.41,78.15-200.26
					c-6.02-106.13-66.62-134.11-56.17-202.71c5.65-37.1,32.14-86.36,127.24-136.68c1.27,42.35,1.03,78.45,0.32,107.13
					c-2.81,114.1-13.73,151.35,4.32,223.7c17.28,69.22,36.08,70.41,66.51,162.32c26.51,80.08,57.32,173.1,21.41,207.68
					c-30.79,29.66-81.77-11.46-194.16-29.31c-173.08-27.48-298.71,28.55-353.68,10.38
					C2602.82,2201.43,2663.06,2170.2,2710.57,2166.49z"/>
			</g>
			
				<linearGradient id="SVGID_26_" gradientUnits="userSpaceOnUse" x1="-1096.3456" y1="1661.8048" x2="-839.3914" y2="2894.0957" gradientTransform="matrix(-1 0 0 1 1961.1639 0)">
				<stop  offset="0" style="stop-color:#FFC444"/>
				<stop  offset="0.9964" style="stop-color:#F36F56"/>
			</linearGradient>
			<path class="st30" d="M2912.11,1507.12c37.5-30.81,112.89,4.07,133.05,13.39c112.39,51.99,213.3,192.08,188.3,340.13
				c-3.75,22.2-21.14,126.06-109.08,176.38c-79.35,45.4-186.49,33.73-272.34-30.58c-11.73-10.41-23.46-20.82-35.2-31.23
				c-11.54-12.48-23.09-24.95-34.63-37.43c18.14-15.09,48.97-36.86,92.27-50.83c57.08-18.42,98.64,14.63,125.12-10.5
				c18.28-17.34,18.32-47.97,13.81-66.53c-9.1-37.41-42.08-47.93-69.6-74.49C2879.13,1673.04,2867.22,1544.01,2912.11,1507.12z"/>
			<g>
				
					<linearGradient id="SVGID_27_" gradientUnits="userSpaceOnUse" x1="-588.7271" y1="2198.2209" x2="-649.5255" y2="2025.9585" gradientTransform="matrix(-1 0 0 1 1961.1639 0)">
					<stop  offset="0" style="stop-color:#311944"/>
					<stop  offset="1" style="stop-color:#893976"/>
				</linearGradient>
				<polygon class="st31" points="2373.25,1990.44 2875.85,1982.93 2742.2,2047.43 2371.97,2023.2 				"/>
				
					<linearGradient id="SVGID_28_" gradientUnits="userSpaceOnUse" x1="-854.3283" y1="1948.6392" x2="-832.0356" y2="2102.6621" gradientTransform="matrix(-1 0 0 1 1961.1639 0)">
					<stop  offset="0" style="stop-color:#311944"/>
					<stop  offset="1" style="stop-color:#893976"/>
				</linearGradient>
				<path class="st32" d="M2893.59,1996.29L2893.59,1996.29c0,9.41-5.89,17.81-14.73,21.02l-160.6,62.96l-0.73-43.65l158.32-53.69
					C2884.73,1980.38,2893.59,1987.05,2893.59,1996.29z"/>
			</g>
			<linearGradient id="SVGID_29_" gradientUnits="userSpaceOnUse" x1="2690.5493" y1="1972.8165" x2="2816.5422" y2="1972.8165">
				<stop  offset="0" style="stop-color:#FFC444"/>
				<stop  offset="0.9964" style="stop-color:#F36F56"/>
			</linearGradient>
			<path class="st33" d="M2816.2,1966.55c3.08-0.69-15.03-36.78-29.25-32.61c-14.22,4.17-83.76,44.47-90.08,61.06
				c-6.32,16.59-6.32,16.59-6.32,16.59s30.33,2.37,49.15-3.95C2758.51,2001.32,2791.11,1972.14,2816.2,1966.55z"/>
			<g>
				<g>
					
						<linearGradient id="SVGID_30_" gradientUnits="userSpaceOnUse" x1="-412.6077" y1="1962.1294" x2="-531.1426" y2="1793.8099" gradientTransform="matrix(-1 0 0 1 1961.1639 0)">
						<stop  offset="0" style="stop-color:#444B8C"/>
						<stop  offset="0.9964" style="stop-color:#26264F"/>
					</linearGradient>
					<path class="st34" d="M2704.2,1730.37l35.43,322.56c1.22,11.13-14.36,27.71-25.54,27.18l-519.71-31.91
						c-8.54-0.41-15.65-6.69-17.1-15.12l-65.23-311.54c-1.95-11.34,18.43-23.05,29.93-22.73l544.62,15.31
						C2695.7,1714.4,2703.21,1721.33,2704.2,1730.37z"/>
					
						<linearGradient id="SVGID_31_" gradientUnits="userSpaceOnUse" x1="-639.9789" y1="2240.6951" x2="-380.571" y2="1713.7734" gradientTransform="matrix(-1 0 0 1 1961.1639 0)">
						<stop  offset="0" style="stop-color:#311944"/>
						<stop  offset="1" style="stop-color:#893976"/>
					</linearGradient>
					<path class="st35" d="M2692.32,1739.78l35.43,322.57c1.22,11.13-7.79,20.72-18.97,20.19l-526.28-24.92
						c-8.54-0.4-15.65-6.69-17.1-15.12l-53.77-312.96c-1.95-11.34,6.97-21.62,18.47-21.3l544.62,15.31
						C2683.82,1723.81,2691.33,1730.73,2692.32,1739.78z"/>
				</g>
				
					<linearGradient id="SVGID_32_" gradientUnits="userSpaceOnUse" x1="-766.6973" y1="1902.4993" x2="-196.8146" y2="1902.4993" gradientTransform="matrix(-1 0 0 1 1961.1639 0)">
					<stop  offset="0" style="stop-color:#311944"/>
					<stop  offset="1" style="stop-color:#893976"/>
				</linearGradient>
				<path class="st36" d="M2383.29,1982.03c45.95-19.48,29.73-56.62,84-102.9c71.59-61.05,144.55-34.58,170.1-81.9
					c7.95-14.74,11.75-37.67-2.1-74.79l39.44,1.11c9.09,0.25,16.61,7.18,17.6,16.22l35.43,322.57c1.22,11.13-7.79,20.72-18.97,20.19
					l-526.28-24.92c-8.54-0.4-15.65-6.69-17.1-15.12l-7.42-43.19c15.97-8.89,35.05-16.97,57.31-21.48
					C2292.5,1962.17,2330.38,2004.46,2383.29,1982.03z"/>
			</g>
			<linearGradient id="SVGID_33_" gradientUnits="userSpaceOnUse" x1="2149.1255" y1="2037.2649" x2="2234.1238" y2="2037.2649">
				<stop  offset="0" style="stop-color:#FFC444"/>
				<stop  offset="0.9964" style="stop-color:#F36F56"/>
			</linearGradient>
			<path class="st37" d="M2149.34,2012.5c-0.86-2.6,0.96-5.28,3.69-5.41c11.12-0.57,36.92-0.8,51.16,7.92
				c18.5,11.33,42.42,32.01,22.28,42.44l-18.81,9.75c-0.86,0.45-1.8,0.59-2.75,0.38c-6.68-1.47-34.82-7.71-37.89-9.26
				C2164.21,2056.91,2153.48,2025.08,2149.34,2012.5z"/>
			<g>
				<linearGradient id="SVGID_34_" gradientUnits="userSpaceOnUse" x1="2792.9451" y1="1345.5038" x2="2771.2126" y2="1714.9509">
					<stop  offset="0" style="stop-color:#FFC444"/>
					<stop  offset="0.9964" style="stop-color:#F36F56"/>
				</linearGradient>
				<path class="st38" d="M2787.5,1345.18c-0.28,33.45,3.45,59.99,6.98,78.16c4.04,20.82,6.96,26.2,10.68,30.56
					c5.6,6.57,14.08,12.08,62.02,23.97c26.09,6.47,29.44,6.29,30.02,8.88c2.81,12.63-68.32,55.67-141.82,45.3
					c-44.98-6.35-85.9-32.01-83.39-45.48c2.53-13.56,47.46-6.28,60.85-30.82c9.32-17.07-1.13-41.3-13.47-61.36
					C2731.33,1371.98,2775.55,1367.58,2787.5,1345.18z"/>
				<g>
					
						<linearGradient id="SVGID_35_" gradientUnits="userSpaceOnUse" x1="2911.95" y1="1341.5504" x2="2826.8579" y2="1125.4321" gradientTransform="matrix(1 3.700000e-03 -3.700000e-03 1 -77.8609 162.9159)">
						<stop  offset="0" style="stop-color:#311944"/>
						<stop  offset="1" style="stop-color:#6B3976"/>
					</linearGradient>
					<path class="st39" d="M2704.02,1358.41c-10.61-14.1-11.27-38.72,0.96-54.28c10.53-13.39,27.09-15.3,37-16.45
						c28.73-3.32,64.99,8.68,77.6,35.12c7.47,15.67-8.69,48.24-11.22,54.09c-2.87,6.62-8.06,8.89-12.87,13.9
						c-6.66,6.94-17.09,17.98-34.12,36.44c-1.32-5.45-3.33-12.19-6.53-19.5c-1.23-2.81-6.17-13.8-13.65-22.91
						C2726.23,1366.56,2714.08,1371.77,2704.02,1358.41z"/>
					<linearGradient id="SVGID_36_" gradientUnits="userSpaceOnUse" x1="2699.093" y1="1390.5465" x2="2808.1135" y2="1390.5465">
						<stop  offset="0" style="stop-color:#FFC444"/>
						<stop  offset="0.9964" style="stop-color:#F36F56"/>
					</linearGradient>
					<path class="st40" d="M2785.66,1411.71c0,0-18.89,30.99-56.5,28.54c-33.67-2.19-38.61-77.71-17.1-93.73
						c7.18-5.35,21.55-7.57,33.23-4.29c6.9,1.93,9.24,4.8,20.58,7.74c10.46,2.71,13.41,1.56,16.57,4.21
						c3.95,3.32,6.84,11.47,0.25,33.55c6.43-6.5,14.14-9,19.6-6.42c0.87,0.41,3.18,1.98,4.48,4.37
						C2811.48,1394.3,2803.61,1405.32,2785.66,1411.71z"/>
					
						<linearGradient id="SVGID_37_" gradientUnits="userSpaceOnUse" x1="2885.9551" y1="1351.8989" x2="2800.7769" y2="1135.5616" gradientTransform="matrix(1 3.700000e-03 -3.700000e-03 1 -77.8609 162.9159)">
						<stop  offset="0" style="stop-color:#311944"/>
						<stop  offset="1" style="stop-color:#6B3976"/>
					</linearGradient>
					<path class="st41" d="M2783.97,1349.67c-1.62,1.21,3.34,7.27,3.71,15.85c0.72,16.65-16.13,36.63-33.32,38.32
						c-10.16,1-12.95-5.12-29.75-6.9c-10.4-1.1-19.06,0.22-24.5,1.41c-5.28,18.26-0.31,36.46,11.89,44.9
						c13.14,9.09,29.92,3.58,36.93,1.27c4.69-1.54,19.73-6.46,27.59-20.25c8.19-14.37,0.15-23.04,9.55-32.76
						c4.74-4.9,10.96-7.03,17.03-16.52c1.65-2.58,2.74-4.86,3.42-6.4C2797.82,1359.39,2786.32,1347.91,2783.97,1349.67z"/>
					<linearGradient id="SVGID_38_" gradientUnits="userSpaceOnUse" x1="2709.5762" y1="1409.2805" x2="2733.5359" y2="1409.2805">
						<stop  offset="0" style="stop-color:#FFC444"/>
						<stop  offset="0.9964" style="stop-color:#F36F56"/>
					</linearGradient>
					<path class="st42" d="M2712.32,1405.12c0,0,7.27,3.8,19.84,3.09c0.61-0.04,1.29,0.14,1.36,0.46c0.29,1.19-7.77,6.54-15.2,4.45
						c-5.27-1.48-9.38-6.48-8.67-7.75C2709.96,1404.84,2711.15,1404.91,2712.32,1405.12z"/>
				</g>
			</g>
		</g>
	</g>
</g>
</svg>
