<?xml version="1.0" encoding="utf-8"?>
<svg version="1.1" xmlns="http://www.w3.org/2000/svg" xmlns:xlink="http://www.w3.org/1999/xlink" x="0px" y="0px"
	viewBox="0 0 1024 1024" style="enable-background:new 0 0 1024 1024;" xml:space="preserve">
	<style type="text/css">
		.st0 {
			fill: #83e460;
		}
	</style>
	<g id="Layer">
		<g>
			<path class="st0" d="M562.65,242.02c-44.57,0-80.7,33.12-80.7,73.98s36.13,73.98,80.7,73.98c75.62,4.4,143.68,34.48,194.02,80.89
			c54.59,50.33,88.36,119.85,88.36,196.65c0,1.53-0.04,3.04-0.06,4.57c0,0.07,0,0.14,0,0.21c0,116.59-75.9,216.38-185.34,257.7
			C816.14,885.68,931.5,751.87,931.5,593.7C931.5,403.24,767.49,248.14,562.65,242.02z" />
			<path class="st0" d="M745.12,827.25c31.59-43.63,48.29-94.92,48.29-148.31v-0.22c0-0.13,0-0.26,0-0.39l0.03-1.72
			c0.02-0.9,0.03-1.81,0.03-2.71c0-70.04-29.38-135.95-82.73-185.59c-10-9.31-20.68-17.84-31.92-25.58
			c-5.26,3.19-10.6,6.19-15.99,8.98c-75.71,34.64-160.41,26.94-217.26-20.39c-6.94-5.78-86.71-74.48-62.9-167.31
			c14.24-55.5,60.32-99.39,119.66-114.79c60.01-9.37,41.04-95.74-17.49-79.83c-102.28,7.6-218.94,53.74-292.53,135.26
			C28.1,398.23,77.71,704.54,259.37,843.89c91.04,70.76,198.44,90.13,284.46,92.68c35-2.72,68.15-10.98,98.49-23.81
			C683.56,892.85,718.79,863.63,745.12,827.25z" />
		</g>
	</g>
</svg>